<?xml version="1.0" encoding="utf-8"?>
<!-- Generator: Adobe Illustrator 23.1.1, SVG Export Plug-In . SVG Version: 6.00 Build 0)  -->
<svg version="1.1" id="Layer_1" xmlns="http://www.w3.org/2000/svg" xmlns:xlink="http://www.w3.org/1999/xlink" x="0px" y="0px"
	 viewBox="0 0 1000 1000" enable-background="new 0 0 1000 1000" xml:space="preserve">
<g id="XMLID_260_">
	<g id="XMLID_214_">
		<path id="XMLID_242_" fill="#010202" d="M211.53,868.83v-42.18h15.32v77.71l-45.8-43.64v42.18h-15.27v-77.66L211.53,868.83z"/>
		<path id="XMLID_240_" fill="#010202" d="M284.77,872.78v-45.95h15.36v45.99c0,8.48-3,15.72-9,21.72
			c-6.03,5.97-13.26,8.95-21.68,8.95c-8.51,0-15.77-2.98-21.77-8.95c-6-6-9-13.24-9-21.72v-45.99h15.36v45.95
			c0,8.28,7.01,15.27,15.36,15.27C277.67,888.05,284.77,881.02,284.77,872.78z"/>
		<path id="XMLID_236_" fill="#010202" d="M351.13,858.13c1.86,0.93,4.41,2.49,5.84,3.86c4.62,4.68,6.93,10.3,6.93,16.87
			c0,6.6-2.31,12.22-6.93,16.87c-4.62,4.71-10.21,7.07-16.78,7.07h-28.23v-75.96h15.93h5.28c5.87,0,10.9,2.1,15.08,6.31
			c4.02,4.08,6.03,8.91,6.03,14.47C354.28,851.26,352.53,855.63,351.13,858.13z M333.17,841.68h-5.98v13.9
			c1.35-0.06,3.25-0.19,5.7-0.38c3.61-0.41,6.69-3.11,6.69-6.97C339.58,844.71,336.72,841.68,333.17,841.68z M349.01,878.86
			c0-5.05-4.11-9.02-8.81-9.33c-4.52-0.25-8.44-0.05-13.01-0.05v18.43h3.02h9.99C345.15,887.91,349.01,883.82,349.01,878.86z"/>
		<path id="XMLID_234_" fill="#010202" d="M372.91,826.84h15.27v75.96h-15.27V826.84z"/>
		<path id="XMLID_231_" fill="#010202" d="M431.82,825.28l34.68,77.52h-16.54l-5.14-11.55h-26.01l-5.14,11.55h-16.49L431.82,825.28z
			 M438.8,877.78l-6.93-16.07l-7.02,16.07H438.8z"/>
		<path id="XMLID_229_" fill="#010202" d="M521.27,868.83v-42.18h15.32v77.71l-45.8-43.64v42.18h-15.27v-77.66L521.27,868.83z"/>
		<path id="XMLID_227_" fill="#010202" d="M569.59,887.85c4.22,0,8.87-3.5,8.87-7.72c0-6.93-9.31-7.9-14.56-9.72
			c-9.26-3.16-17.44-10.76-17.44-21.1c0-12.81,10.39-23.13,23.2-23.13c11.68,0,21.36,8.66,22.92,19.93l-15.16,3.2
			c0-4.17-3.5-7.67-7.67-7.67c-4.24,0-7.74,3.5-7.74,7.72c0,6.84,8.66,8.66,13.94,10.23c9.58,2.77,18.04,10.07,18.04,20.64
			c0,12.81-11.5,23.15-24.28,23.15c-11.75,0-22.37-8.62-24.1-19.93l15.16-3.22c0,4.24,4.61,7.7,8.89,7.7L569.59,887.85z"/>
		<path id="XMLID_224_" fill="#010202" d="M603,879.99v-53.16h26.67c7.38,0,13.67,2.59,18.85,7.78c5.25,5.22,7.87,11.5,7.87,18.85
			c0,7.41-2.62,13.67-7.87,18.76c-5.25,5.18-11.53,7.78-18.85,7.78h-11.4v22.81H603V879.99z M629.68,841.97h-11.4v22.9l11.4,0.05
			c6.25,0,11.45-5.24,11.45-11.45C641.13,847.26,635.9,841.97,629.68,841.97z"/>
		<path id="XMLID_222_" fill="#010202" d="M665.4,826.84h15.27v75.96H665.4V826.84z"/>
		<path id="XMLID_219_" fill="#010202" d="M692.51,826.84h24.79c8.46,0,15.3,3.19,19.89,7.73c4.62,4.62,7.35,8.84,7.35,17.25v1.98
			c0,5.12-1.6,9.94-4.81,14.47c-2.67,3.74-4.78,5.33-9.09,7.02l17.67,27.52h-18.66l-21.82-33.6v33.6h-15.27L692.51,826.84z
			 M728.79,852.29c0-2.76-1.01-5.2-3.02-7.3c-1.98-1.93-5.74-3.02-9.42-3.02h-8.58v20.97h5.89v0.05h5.09
			C724.32,862.98,728.79,858.08,728.79,852.29z"/>
		<path id="XMLID_217_" fill="#010202" d="M757.27,826.84h15.27v75.96h-15.27V826.84z"/>
		<path id="XMLID_215_" fill="#010202" d="M834.23,826.84v15.13h-18.66v60.84h-15.32v-60.84h-18.71v-15.13H834.23z"/>
	</g>
</g>
<path id="XMLID_263_" fill="#010202" d="M395.82,675.15L395.82,675.15L395.82,675.15L395.82,675.15
	c27.7-54.07,49.31-69.97,49.31-69.97h-98.62C346.51,605.18,368.12,621.08,395.82,675.15z"/>
<path id="XMLID_262_" fill="#010202" d="M478.43,95.64c0,0,180.78,87.2,210.13,190.26c0,0,6.19,35.9,2.6,54.56
	c0,0,110.47,99.08,113.46,124.35c2.99,25.27-19.51,16.85-20.27,62.22l9.52,40.68c0,0-13.9,36.55-42.36,28.92
	c0,0,32.91-31.46,12.5-45.51c-20.4-14.05,16.25-65.61,16.25-65.61s16.62-17.18-23.86-48.17c-40.47-31-84.29-84.19-84.29-84.19
	s-10.41-11.63-7.78-34.79C666.97,295.18,582.87,157.37,478.43,95.64z"/>
<path id="XMLID_261_" fill="#010202" d="M761.78,609.53c0,0,22.47-0.38,24.2,27.68c1.73,28.06-16.13,21.63-16.13,21.63
	s42.74,32.72,17.86,70.96c-24.88,38.24-45.84,54.92-100.95,23.73s-86.51-25.96-124.25,9.35c0,0,11.71-51.46,67.23-49.56
	c55.51,1.91,92.14,49.53,127.58,13.03s-16.75-59.1-16.75-59.1s-13.95-19.18,4.57-27.34C763.65,631.74,772.04,622.43,761.78,609.53z"
	/>
<rect id="XMLID_259_" x="328.51" y="95.64" fill="#010202" width="121.17" height="203.88"/>
<path id="XMLID_276_" fill="#010202" d="M395.82,261.7c-99,0-179.25,80.25-179.25,179.25S296.82,620.2,395.82,620.2
	s179.25-80.25,179.25-179.25S494.82,261.7,395.82,261.7z M395.82,575.97c-74.45,0-135.02-60.57-135.02-135.02
	s60.57-135.02,135.02-135.02s135.02,60.57,135.02,135.02S470.27,575.97,395.82,575.97z"/>
<path id="XMLID_306_" fill="#010202" d="M395.82,312.36c-70.9,0-128.59,57.68-128.59,128.59c0,70.9,57.68,128.59,128.59,128.59
	c70.9,0,128.59-57.68,128.59-128.59C524.41,370.05,466.72,312.36,395.82,312.36z M405.31,494.73l-61.86-58.93v56.96h-20.62V387.87
	l61.8,58.87v-56.96h20.68V494.73z M446.79,493.4c-15.87,0-30.22-11.64-32.55-26.92l20.47-4.36c0,5.72,6.22,10.39,12.01,10.39
	l-0.09-0.09c5.69,0,11.98-4.73,11.98-10.42c0-9.37-12.57-10.67-19.67-13.13c-12.51-4.26-23.56-14.53-23.56-28.5
	c0-17.3,14.03-31.24,31.33-31.24c15.78,0,28.85,11.7,30.96,26.92l-20.48,4.32c0-5.63-4.73-10.36-10.36-10.36
	c-5.73,0-10.46,4.73-10.46,10.42c0,9.24,11.7,11.7,18.83,13.82c12.94,3.73,24.36,13.6,24.36,27.88
	C479.58,479.43,464.06,493.4,446.79,493.4z"/>
</svg>
